<svg id="eCOk74sJ06w1" xmlns="http://www.w3.org/2000/svg" xmlns:xlink="http://www.w3.org/1999/xlink" viewBox="0 0 800 800" shape-rendering="geometricPrecision" text-rendering="geometricPrecision"><style><![CDATA[#eCOk74sJ06w5_ts {animation: eCOk74sJ06w5_ts__ts 3000ms linear 1 normal forwards}@keyframes eCOk74sJ06w5_ts__ts { 0% {transform: translate(223.050018px,476.200012px) scale(1,1)} 30% {transform: translate(223.050018px,476.200012px) scale(1,1);animation-timing-function: cubic-bezier(0.445,0.05,0.55,0.95)} 36.666667% {transform: translate(223.050018px,476.200012px) scale(1,0.1);animation-timing-function: cubic-bezier(0.445,0.05,0.55,0.95)} 43.333333% {transform: translate(223.050018px,476.200012px) scale(1,1);animation-timing-function: cubic-bezier(0.445,0.05,0.55,0.95)} 50% {transform: translate(223.050018px,476.200012px) scale(1,0.1);animation-timing-function: cubic-bezier(0.445,0.05,0.55,0.95)} 56.666667% {transform: translate(223.050018px,476.200012px) scale(1,1)} 100% {transform: translate(223.050018px,476.200012px) scale(1,1)}} #eCOk74sJ06w6_ts {animation: eCOk74sJ06w6_ts__ts 3000ms linear 1 normal forwards}@keyframes eCOk74sJ06w6_ts__ts { 0% {transform: translate(576.98999px,476.200012px) scale(1,1)} 30% {transform: translate(576.98999px,476.200012px) scale(1,1);animation-timing-function: cubic-bezier(0.445,0.05,0.55,0.95)} 36.666667% {transform: translate(576.98999px,476.200012px) scale(1,0.1);animation-timing-function: cubic-bezier(0.445,0.05,0.55,0.95)} 43.333333% {transform: translate(576.98999px,476.200012px) scale(1,1);animation-timing-function: cubic-bezier(0.445,0.05,0.55,0.95)} 50% {transform: translate(576.98999px,476.200012px) scale(1,0.1);animation-timing-function: cubic-bezier(0.445,0.05,0.55,0.95)} 56.666667% {transform: translate(576.98999px,476.200012px) scale(1,1)} 100% {transform: translate(576.98999px,476.200012px) scale(1,1)}}]]></style><g><path d="M401.66,751.82c-87.23,0-174.45.05-261.68-.02-41.34-.03-57.55-16.73-56.34-55.94c2.84-91.78,5.42-183.57,7.24-275.38.15-7.36-4.32-16.87-10.08-21.96C23.52,347.95,9.32,287.88,41.68,219.54c34.19-72.22,95.15-119.38,169.56-152.38c167.51-74.28,378-42.01,498.59,76.17c34.71,34.02,60.25,72.9,68.41,120.42c8.92,51.93-7.41,95.67-49.87,129.58-12.51,9.99-15.91,19.95-15.4,34.32c3.19,89.76,5.84,179.54,8.23,269.32c1.05,39.31-15.74,54.82-57.86,54.84-87.22.04-174.45.01-261.68.01Z" fill="#14a76c"/></g><path d="M400.26,627.14c-19.01,20.99-41.94,35.64-69.03,42.76-53.8,14.13-103.52,6.61-146.28-31.1-24.63-21.72-33.22-50.07-31.23-84.6c1.64,3.89,2.44,5.66,3.14,7.47c15.54,40.41,63.74,53.37,97.26,25.6c8.83-7.31,15.95-16.7,23.74-25.25c9.91-10.88,18.7-23.02,29.75-32.56c19.84-17.15,43.45-23.47,69.23-16.56c8.42,2.26,16.07,7.42,24.53,11.48c31.35-25.65,74.34-13.53,96.77,9.05c9.06,9.12,16.9,19.46,25.39,29.15c6.41,7.32,12.44,15.09,19.58,21.63c19.44,17.8,42.27,21.34,66.94,13.54c17.16-5.43,26.92-18.54,33.36-34.59.92-2.29,1.94-4.53,3.71-8.63c3.05,45.57-15.36,77.79-51.88,100.12-60.13,36.78-142,26.34-191.24-24.03-1.09-1.1-2.27-2.11-3.74-3.48Z" fill="#2b2a38"/><g id="eCOk74sJ06w5_ts" transform="translate(223.050018,476.200012) scale(1,1)"><path d="M223.05,544.96v0c-37.97,0-68.76-30.78-68.76-68.76v0c0-37.97,30.78-68.76,68.76-68.76v0c37.97,0,68.76,30.78,68.76,68.76v0c0,37.98-30.79,68.76-68.76,68.76Z" transform="translate(-223.050018,-476.200012)" fill="#2b2a38"/></g><g id="eCOk74sJ06w6_ts" transform="translate(576.98999,476.200012) scale(1,1)"><path d="M576.99,544.96v0c-37.97,0-68.76-30.78-68.76-68.76v0c0-37.97,30.78-68.76,68.76-68.76v0c37.97,0,68.76,30.78,68.76,68.76v0c0,37.98-30.79,68.76-68.76,68.76Z" transform="translate(-576.98999,-476.200012)" fill="#2b2a38"/></g></svg>